<svg width="32" height="32" viewBox="0 0 32 32" fill="none" xmlns="http://www.w3.org/2000/svg">
<g clip-path="url(#clip0_2809_15479)">
<path d="M22.0001 10.5752C22.0001 6.1002 18.4001 2.4502 13.9251 2.4502C9.4501 2.4502 5.8501 6.1002 5.8501 10.5752C5.8501 15.0502 9.4751 18.7002 13.9251 18.7002C18.3751 18.7002 22.0001 15.0502 22.0001 10.5752ZM7.2501 10.5752C7.2501 6.8752 10.2501 3.8752 13.9251 3.8752C17.6001 3.8752 20.6001 6.8752 20.6001 10.5752C20.6001 14.2752 17.6001 17.2752 13.9251 17.2752C10.2501 17.2752 7.2501 14.2752 7.2501 10.5752Z" fill="#1F1EB9"/>
<path d="M14.2751 19.4249C20.4251 19.4249 25.5751 23.6749 26.6001 29.5499H28.0251C26.9751 22.8749 21.1751 18.0249 14.2501 18.0249C7.3251 18.0249 1.5501 22.8749 0.475098 29.5499H1.9001C3.0001 23.6499 8.1251 19.4249 14.2751 19.4249Z" fill="#1F1EB9"/>
<path d="M24.0749 18.0751L23.3249 17.8001L23.9749 17.3501C26.0249 15.9001 27.2499 13.5251 27.1999 11.0251C27.1499 7.0251 23.9999 3.7501 20.0749 3.4751V4.9501C23.1999 5.2251 25.6999 7.8501 25.7249 11.0251C25.7499 12.6751 25.1249 14.2251 23.9749 15.4251C22.8249 16.6001 21.2749 17.2751 19.6249 17.3001C18.8499 17.3001 18.0499 17.3001 17.2749 17.3501C16.7999 17.4001 15.9749 17.3501 15.5749 17.6501C15.5249 17.6751 15.4749 17.6501 15.4249 17.6501L15.1249 18.0251C15.0999 18.0751 15.0499 18.1251 14.9999 18.1751C15.0249 18.2251 14.9749 18.6751 14.9999 18.7251C15.3749 18.8501 17.2249 18.7251 19.8999 18.8001C25.4999 18.8501 30.0999 23.8251 30.5499 29.3751L32.0249 29.4751C31.7249 24.6001 28.6499 19.7751 24.0749 18.0751Z" fill="#1F1EB9"/>
</g>
<defs>
<clipPath id="clip0_2809_15479">
<rect width="32" height="32" fill="white"/>
</clipPath>
</defs>
</svg>
