<svg width="32" height="32" viewBox="0 0 32 32" fill="none" xmlns="http://www.w3.org/2000/svg">
<g clip-path="url(#clip0_3_19)">
<mask id="mask0_3_19" style="mask-type:luminance" maskUnits="userSpaceOnUse" x="0" y="0" width="32" height="32">
<path d="M32 0H0V32H32V0Z" fill="white"/>
</mask>
<g mask="url(#mask0_3_19)">
<path d="M22.0006 10.5752C22.0006 6.1002 18.4006 2.4502 13.9256 2.4502C9.45059 2.4502 5.85059 6.1002 5.85059 10.5752C5.85059 15.0502 9.47559 18.7002 13.9256 18.7002C18.3756 18.7002 22.0006 15.0502 22.0006 10.5752ZM7.25059 10.5752C7.25059 6.8752 10.2506 3.8752 13.9256 3.8752C17.6006 3.8752 20.6006 6.8752 20.6006 10.5752C20.6006 14.2752 17.6006 17.2752 13.9256 17.2752C10.2506 17.2752 7.25059 14.2752 7.25059 10.5752Z" fill="#6BAB10"/>
<path d="M14.2756 19.4249C20.4256 19.4249 25.5756 23.6749 26.6006 29.5499H28.0256C26.9756 22.8749 21.1756 18.0249 14.2506 18.0249C7.32559 18.0249 1.55059 22.8749 0.475586 29.5499H1.90059C3.00059 23.6499 8.12559 19.4249 14.2756 19.4249Z" fill="#6BAB10"/>
<path d="M24.0754 18.0751L23.3254 17.8001L23.9754 17.3501C26.0254 15.9001 27.2504 13.5251 27.2004 11.0251C27.1504 7.0251 24.0004 3.7501 20.0754 3.4751V4.9501C23.2004 5.2251 25.7004 7.8501 25.7254 11.0251C25.7504 12.6751 25.1254 14.2251 23.9754 15.4251C22.8254 16.6001 21.2754 17.2751 19.6254 17.3001C18.8504 17.3001 18.0504 17.3001 17.2754 17.3501C16.8004 17.4001 15.9754 17.3501 15.5754 17.6501C15.5254 17.6751 15.4754 17.6501 15.4254 17.6501L15.1254 18.0251C15.1004 18.0751 15.0504 18.1251 15.0004 18.1751C15.0254 18.2251 14.9754 18.6751 15.0004 18.7251C15.3754 18.8501 17.2254 18.7251 19.9004 18.8001C25.5004 18.8501 30.1004 23.8251 30.5504 29.3751L32.0254 29.4751C31.7254 24.6001 28.6504 19.7751 24.0754 18.0751Z" fill="#6BAB10"/>
</g>
</g>
<defs>
<clipPath id="clip0_3_19">
<rect width="32" height="32" fill="white"/>
</clipPath>
</defs>
</svg>
