<svg width="32" height="32" viewBox="0 0 32 32" fill="none" xmlns="http://www.w3.org/2000/svg">
<path d="M22.4306 6.09521C23.5568 6.09521 24.4698 7.01271 24.4698 8.14448L24.4694 8.79083L24.5831 8.79139L24.5832 8.57624C24.5832 7.82172 25.1919 7.21005 25.9427 7.21005C26.2045 7.21005 26.4608 7.28606 26.6807 7.42892L31.3784 10.4808C32.009 10.8905 32.1896 11.7362 31.782 12.3699C31.6776 12.5323 31.54 12.6705 31.3784 12.7755L26.6807 15.8274C26.0502 16.237 25.2086 16.0554 24.801 15.4218C24.6589 15.2008 24.5832 14.9433 24.5832 14.6806L24.5831 14.4644L24.4694 14.464L24.4711 17.6894C26.1756 20.8505 24.6682 25.6716 19.9484 25.8966L19.7339 25.9036C14.447 26.0086 12.2418 18.852 16.5704 15.9741C17.0206 15.6977 16.8033 15.8186 17.098 15.6632C17.3855 15.5115 17.0349 15.6899 17.6913 15.367C18.3231 15.1146 19.0123 14.9754 19.7338 14.9754C21.1291 15 22.2547 15.4184 23.1108 16.0784L23.1101 14.464L16.9929 14.4647C16.2421 14.4647 15.6335 13.8531 15.6335 13.0985V10.1578C15.6335 9.40329 16.2421 8.79162 16.9929 8.79162L23.1101 8.79083L23.1104 8.14448C23.1104 7.76723 22.806 7.46138 22.4306 7.46138H2.03916C1.66376 7.46138 1.35942 7.76723 1.35942 8.14448V20.44C1.35942 20.8173 1.66376 21.1231 2.03916 21.1231L14.3161 21.1234C14.3754 21.6007 14.4959 22.0589 14.6695 22.4898L2.03916 22.4893C0.912965 22.4893 0 21.5718 0 20.44V8.14448C0 7.01271 0.912965 6.09521 2.03916 6.09521H22.4306ZM18.0311 22.8658L17.0915 23.8002C17.671 24.2517 18.3697 24.5582 19.1321 24.665V23.3391C18.7295 23.2566 18.3568 23.0925 18.0311 22.8658ZM21.4363 22.8659C21.1107 23.0925 20.738 23.2566 20.3354 23.3391V24.665C21.0977 24.5582 21.7965 24.2517 22.376 23.8002L21.4363 22.8659ZM23.9975 20.9249H22.6702C22.6055 21.3127 22.465 21.6752 22.2641 21.9968L23.2108 22.9382C23.6328 22.359 23.9122 21.6709 23.9975 20.9249ZM16.7973 20.9249H15.47C15.5553 21.6709 15.8347 22.359 16.2567 22.9381L17.2034 21.9968C17.0024 21.6752 16.862 21.3127 16.7973 20.9249ZM19.7338 18.6757C17.4029 18.7169 17.4026 22.1618 19.7338 22.2034C22.0646 22.1621 22.0649 18.7172 19.7338 18.6757ZM16.3541 17.8121C15.9227 18.3596 15.6229 19.0142 15.5019 19.7284H16.844C16.933 19.3712 17.0874 19.0396 17.2938 18.7464L16.3541 17.8121ZM23.1134 17.8121L22.1738 18.7464C22.3801 19.0396 22.5345 19.3712 22.6235 19.7284H23.9655C23.8446 19.0142 23.5448 18.3596 23.1134 17.8121ZM7.22396 17.7077C7.5722 17.7077 7.85449 17.99 7.85449 18.3382C7.85449 18.6865 7.5722 18.9688 7.22396 18.9688H3.34942C3.00118 18.9688 2.71884 18.6865 2.71884 18.3382C2.71884 17.99 3.00118 17.7077 3.34942 17.7077H7.22396ZM13.0393 17.7077C13.3875 17.7077 13.6698 17.99 13.6698 18.3382C13.6698 18.6865 13.3875 18.9688 13.0393 18.9688H9.16476C8.81652 18.9688 8.53423 18.6865 8.53423 18.3382C8.53423 17.99 8.81652 17.7077 9.16476 17.7077H13.0393ZM19.1321 16.214C18.4257 16.313 17.7739 16.5836 17.2211 16.982L18.1677 17.9233C18.4596 17.743 18.7848 17.6111 19.1321 17.5399V16.214ZM20.3354 16.214V17.5399C20.6827 17.6111 21.0079 17.743 21.2998 17.9233L22.2465 16.9821C21.6936 16.5836 21.0418 16.313 20.3354 16.214ZM25.9427 8.57624L25.9415 10.1575L16.9929 10.1578V13.0985L25.9415 13.0982L25.9427 14.6801L30.6404 11.6282L25.9427 8.57624ZM6.11747 8.82757C6.86826 8.82757 7.47689 9.43921 7.47689 10.1937C7.47689 10.9482 6.86826 11.5599 6.11747 11.5599C5.71122 11.5599 5.34658 11.3808 5.09747 11.0969C4.84917 11.3808 4.48456 11.5599 4.07831 11.5599C3.32752 11.5599 2.71884 10.9482 2.71884 10.1937C2.71884 9.43921 3.32752 8.82757 4.07831 8.82757C4.48456 8.82757 4.84915 9.00664 5.09826 9.29053C5.34656 9.00664 5.71122 8.82757 6.11747 8.82757Z" fill="#1F1EB9"/>
</svg>
