<svg width="32" height="32" viewBox="0 0 32 32" fill="none" xmlns="http://www.w3.org/2000/svg">
<path d="M3.45 28.8501C1.675 28.8501 0.25 27.3501 0.25 25.5251V8.9251C0.25 7.1001 1.675 5.6001 3.45 5.6001H28.475C30.25 5.6001 31.675 7.1001 31.675 8.9251V25.5001C31.675 27.3251 30.25 28.8251 28.475 28.8251H3.45V28.8501ZM3.45 6.9251C2.375 6.9251 1.525 7.8251 1.525 8.9251V25.5001C1.525 26.6001 2.4 27.5001 3.45 27.5001H28.475C29.55 27.5001 30.4 26.6001 30.4 25.5001V8.9251C30.4 7.8251 29.525 6.9251 28.475 6.9251H3.45Z" fill="#1F1EB9"/>
<path d="M16.925 12.2498C16.525 12.2498 16.2 11.9248 16.2 11.4998C16.2 11.0748 16.525 10.7498 16.925 10.7498H27.175C27.575 10.7498 27.9 11.0748 27.9 11.4998C27.9 11.9248 27.575 12.2498 27.175 12.2498H16.925ZM16.925 15.9748C16.525 15.9748 16.2 15.6498 16.2 15.2248C16.2 14.7998 16.525 14.4748 16.925 14.4748H27.175C27.575 14.4748 27.9 14.7998 27.9 15.2248C27.9 15.6498 27.575 15.9748 27.175 15.9748H16.925ZM16.925 19.9498C16.525 19.9498 16.2 19.6248 16.2 19.1998C16.2 18.7748 16.525 18.4498 16.925 18.4498H25.575C25.975 18.4498 26.3 18.7748 26.3 19.1998C26.3 19.6248 25.975 19.9498 25.575 19.9498H16.925ZM1.82498 27.6998C1.74998 27.6998 1.67498 27.6998 1.59998 27.6748C1.19998 27.5498 0.974982 27.0998 1.09998 26.6748C1.82498 24.2248 3.52498 22.2248 5.72498 21.1748L6.22498 20.9248L5.79998 20.5498C4.54998 19.4748 3.82498 17.8748 3.82498 16.1998C3.82498 13.0748 6.27498 10.5498 9.24998 10.5498C12.25 10.5498 14.675 13.0748 14.675 16.1998C14.675 17.8748 13.95 19.4748 12.7 20.5498L12.275 20.9248L12.775 21.1748C14.9 22.1748 16.925 24.6748 17.7 27.2498C18.2 28.8998 17.175 28.3748 17.65 27.7498C17.55 27.8998 17.125 27.5748 16.65 27.5748C16.25 27.5748 16.05 28.3498 16.05 28.2748C15.075 25.0248 12.275 21.9248 9.24998 21.9248C6.14998 21.9248 3.42498 24.0248 2.49998 27.1248C2.44998 27.4748 2.14998 27.6998 1.82498 27.6998ZM9.29998 12.1248C7.12498 12.1248 5.34998 13.9498 5.34998 16.1998C5.34998 18.4498 7.12498 20.2748 9.29998 20.2748C11.475 20.2748 13.25 18.4498 13.25 16.1998C13.225 13.9498 11.475 12.1248 9.29998 12.1248Z" fill="#1F1EB9"/>
</svg>
