<svg width="32" height="32" viewBox="0 0 32 32" fill="none" xmlns="http://www.w3.org/2000/svg">
<path d="M0.603774 13.2833H19.3208V16.3021C19.3208 16.5159 19.4337 16.7139 19.6178 16.822C19.712 16.8781 19.8183 16.9059 19.9245 16.9059C20.0254 16.9059 20.1256 16.8805 20.2168 16.8304L31.6885 10.4908C31.8805 10.3845 32 10.1823 32 9.9625C32 9.74273 31.8805 9.54047 31.6885 9.4342L20.2168 3.09458C20.029 2.99073 19.802 2.99435 19.6178 3.10303C19.4337 3.21111 19.3208 3.40915 19.3208 3.62288V6.64175H0.603774C0.270491 6.64175 0 6.91224 0 7.24552V12.6795C0 13.0128 0.270491 13.2833 0.603774 13.2833ZM1.20755 7.8493H19.9245C20.2578 7.8493 20.5283 7.57881 20.5283 7.24552V4.64628L30.1482 9.9625L20.5283 15.2787V12.6795C20.5283 12.3462 20.2578 12.0757 19.9245 12.0757H1.20755V7.8493Z" fill="#1F1EB9"/>
<path d="M31.3962 18.7175H12.6792V15.6986C12.6792 15.4849 12.5663 15.2868 12.3822 15.1788C12.198 15.0707 11.9704 15.0671 11.7832 15.1703L0.311547 21.5099C0.119547 21.6162 0 21.8184 0 22.0382C0 22.258 0.119547 22.4603 0.311547 22.5665L11.7832 28.9061C11.8744 28.9569 11.9746 28.9816 12.0755 28.9816C12.1817 28.9816 12.288 28.9538 12.3822 28.8977C12.5663 28.7896 12.6792 28.5916 12.6792 28.3778V25.359H31.3962C31.7295 25.359 32 25.0885 32 24.7552V19.3212C32 18.988 31.7295 18.7175 31.3962 18.7175ZM30.7925 24.1514H12.0755C11.7422 24.1514 11.4717 24.4219 11.4717 24.7552V27.3544L1.85177 22.0382L11.4717 16.722V19.3212C11.4717 19.6545 11.7422 19.925 12.0755 19.925H30.7925V24.1514Z" fill="#1F1EB9"/>
</svg>
